<svg width="229" height="32" viewBox="0 0 229 32" fill="none" xmlns="http://www.w3.org/2000/svg">
<path d="M46.632 24.0006H42.856V8.00063H46.632V9.82463C47.72 8.54463 49.384 7.68062 51.432 7.68062V11.2646C51.304 11.2326 51.144 11.2326 51.016 11.2326C48.616 11.2326 46.632 12.9286 46.632 15.3606V24.0006Z" fill="white"/>
<path d="M52.2427 16.0006C52.2427 11.2966 55.7627 7.68062 60.4027 7.68062C64.9467 7.68062 68.0507 11.0086 68.0507 15.7766C68.0507 16.3846 67.9547 17.0566 67.8907 17.6966H55.9867C56.6267 19.6806 58.4187 20.8966 60.7867 20.8966C62.3227 20.8966 63.7947 20.3526 64.7547 19.2966L67.1547 21.6966C65.6187 23.3926 63.3787 24.3206 60.7547 24.3206C55.9227 24.3206 52.2427 20.7046 52.2427 16.0006ZM60.3387 11.0726C58.1307 11.0726 56.2427 12.5446 55.9227 14.7526H64.4987C64.1787 12.4806 62.4827 11.0726 60.3387 11.0726Z" fill="white"/>
<path d="M70.0865 16.0006C70.0865 11.4246 73.4465 7.68062 78.0225 7.68062C80.0385 7.68062 81.8945 8.73662 82.9505 9.98462V8.00063H86.7265V24.0006H82.9505V21.9526C81.8945 23.2646 80.0385 24.3206 78.0225 24.3206C73.4465 24.3206 70.0865 20.5766 70.0865 16.0006ZM78.4065 11.4566C75.9105 11.4566 73.8625 13.5046 73.8625 16.0006C73.8625 18.4966 75.9105 20.5446 78.4065 20.5446C80.9025 20.5446 82.9505 18.4966 82.9505 16.0006C82.9505 13.5046 80.9025 11.4566 78.4065 11.4566Z" fill="white"/>
<path d="M97.8127 24.3206C93.2367 24.3206 89.4927 20.5766 89.4927 16.0006C89.4927 11.3926 93.2367 7.68062 97.8127 7.68062C100.181 7.68062 102.325 8.67262 103.829 10.2726L101.173 12.9286C100.341 12.0326 99.1247 11.4566 97.8127 11.4566C95.3167 11.4566 93.2687 13.5046 93.2687 16.0006C93.2687 18.4966 95.3167 20.5446 97.8127 20.5446C99.1247 20.5446 100.341 19.9686 101.173 19.0406L103.829 21.7286C102.325 23.3286 100.181 24.3206 97.8127 24.3206Z" fill="white"/>
<path d="M105.107 8.00063H106.643C107.475 8.00063 108.051 7.45662 108.051 6.62462V3.71263H111.827V8.00063H115.891V11.7766H111.827V17.5046C111.827 20.0326 112.211 20.6726 113.747 20.6726C114.451 20.6726 115.091 20.5766 115.891 20.4166V24.0006C115.155 24.1926 114.099 24.3206 113.235 24.3206C109.587 24.3206 108.051 22.6566 108.051 18.6246V11.7766H105.107V8.00063Z" fill="white"/>
<path d="M122.663 24.0006H118.887V8.00063H122.663V24.0006ZM118.535 2.88062C118.535 1.66463 119.527 0.640625 120.775 0.640625C122.023 0.640625 123.015 1.66463 123.015 2.88062C123.015 4.12862 122.023 5.15262 120.775 5.15262C119.527 5.15262 118.535 4.12862 118.535 2.88062Z" fill="white"/>
<path d="M131.443 24.0006L124.787 8.00063H128.883L133.555 19.3926L138.195 8.00063H142.291L135.667 24.0006H131.443Z" fill="white"/>
<path d="M142.868 16.0006C142.868 11.2966 146.388 7.68062 151.028 7.68062C155.572 7.68062 158.676 11.0086 158.676 15.7766C158.676 16.3846 158.58 17.0566 158.516 17.6966H146.612C147.252 19.6806 149.044 20.8966 151.412 20.8966C152.948 20.8966 154.42 20.3526 155.38 19.2966L157.78 21.6966C156.244 23.3926 154.004 24.3206 151.38 24.3206C146.548 24.3206 142.868 20.7046 142.868 16.0006ZM150.964 11.0726C148.756 11.0726 146.868 12.5446 146.548 14.7526H155.124C154.804 12.4806 153.108 11.0726 150.964 11.0726Z" fill="white"/>
<path fill-rule="evenodd" clip-rule="evenodd" d="M32 16C32 24.8366 24.8366 32 16 32C7.16344 32 0 24.8366 0 16C0 7.16344 7.16344 0 16 0C24.8366 0 32 7.16344 32 16ZM28 16C28 22.6274 22.6274 28 16 28C9.37258 28 4 22.6274 4 16C4 9.37258 9.37258 4 16 4C22.6274 4 28 9.37258 28 16ZM17 7L7 17H15V25L25 15H17V7Z" fill="url(#paint0_linear_577_1102)"/>
<rect x="167" width="2" height="32" fill="white"/>
<path d="M185.75 24H179.466V3.63636H186.028C188.004 3.63636 189.694 4.04403 191.099 4.85938C192.505 5.66809 193.582 6.83144 194.331 8.34943C195.08 9.8608 195.455 11.6705 195.455 13.7784C195.455 15.8996 195.077 17.7259 194.321 19.2571C193.565 20.7817 192.465 21.955 191.02 22.777C189.575 23.5923 187.818 24 185.75 24ZM181.932 21.8125H185.591C187.275 21.8125 188.67 21.4877 189.777 20.8381C190.884 20.1884 191.709 19.2637 192.253 18.0639C192.796 16.8641 193.068 15.4356 193.068 13.7784C193.068 12.1345 192.8 10.7192 192.263 9.53267C191.726 8.33949 190.924 7.42472 189.857 6.78835C188.789 6.14536 187.46 5.82386 185.869 5.82386H181.932V21.8125ZM205.676 24.3182C204.205 24.3182 202.935 23.9934 201.868 23.3438C200.807 22.6875 199.989 21.7727 199.412 20.5994C198.842 19.4195 198.557 18.0473 198.557 16.483C198.557 14.9186 198.842 13.5398 199.412 12.3466C199.989 11.1468 200.791 10.2121 201.818 9.54261C202.852 8.86648 204.059 8.52841 205.438 8.52841C206.233 8.52841 207.018 8.66098 207.794 8.92614C208.57 9.19129 209.276 9.62216 209.912 10.2188C210.548 10.8087 211.055 11.5909 211.433 12.5653C211.811 13.5398 212 14.7396 212 16.1648V17.1591H200.227V15.1307H209.614C209.614 14.2689 209.441 13.5 209.097 12.8239C208.759 12.1477 208.275 11.6141 207.645 11.223C207.022 10.8319 206.286 10.6364 205.438 10.6364C204.503 10.6364 203.694 10.8684 203.011 11.3324C202.335 11.7898 201.815 12.3864 201.45 13.1222C201.086 13.858 200.903 14.6468 200.903 15.4886V16.8409C200.903 17.9943 201.102 18.9721 201.5 19.7741C201.904 20.5696 202.464 21.1761 203.18 21.5938C203.896 22.0047 204.728 22.2102 205.676 22.2102C206.293 22.2102 206.849 22.1241 207.347 21.9517C207.85 21.7727 208.285 21.5076 208.649 21.1562C209.014 20.7983 209.295 20.3542 209.494 19.8239L211.761 20.4602C211.523 21.2292 211.122 21.9053 210.558 22.4886C209.995 23.0653 209.299 23.5161 208.47 23.8409C207.642 24.1591 206.71 24.3182 205.676 24.3182ZM227.593 8.72727L221.946 24H219.559L213.912 8.72727H216.457L220.673 20.8977H220.832L225.048 8.72727H227.593Z" fill="white"/>
<defs>
<linearGradient id="paint0_linear_577_1102" x1="0" y1="0" x2="32" y2="32" gradientUnits="userSpaceOnUse">
<stop stop-color="#62D0FF"/>
<stop offset="0.5" stop-color="#3C2EFF"/>
<stop offset="1" stop-color="#CBB5FF"/>
</linearGradient>
</defs>
</svg>
